<?xml version="1.0" standalone="no"?>
<!DOCTYPE svg PUBLIC "-//W3C//DTD SVG 20010904//EN"
 "http://www.w3.org/TR/2001/REC-SVG-20010904/DTD/svg10.dtd">
<svg version="1.0" xmlns="http://www.w3.org/2000/svg"
 width="567.000000pt" height="567.000000pt" viewBox="0 0 567.000000 567.000000"
 preserveAspectRatio="xMidYMid meet">
<metadata>
Created by potrace 1.11, written by Peter Selinger 2001-2013
</metadata>
<g transform="translate(0.000000,567.000000) scale(0.100000,-0.100000)"
fill="#000000" stroke="none">
<path d="M351 2840 c0 -1364 3 -2481 7 -2481 23 -4 4952 -3 4953 1 4 14 5
4937 1 4947 -3 10 -539 12 -2483 12 l-2478 0 0 -2479z m4900 2410 c1 -3 2
-1091 3 -2418 1 -1601 -2 -2412 -9 -2413 -5 -1 -1092 -2 -2413 -3 -2128 -1
-2405 1 -2411 14 -6 12 -8 4771 -2 4815 1 10 4830 15 4832 5z"/>
<path d="M1955 4588 l-25 -19 0 -1330 c0 -1286 -1 -1331 -19 -1367 -43 -84
-105 -124 -191 -125 -63 -1 -99 15 -178 80 -30 23 -58 44 -63 44 -5 1 -15 2
-21 4 -7 1 -24 -5 -37 -13 -36 -22 -330 -313 -346 -342 -22 -43 -13 -82 38
-147 104 -136 259 -237 435 -285 112 -30 307 -30 415 0 181 51 347 164 463
314 82 106 156 267 170 373 3 22 10 44 14 49 5 4 116 9 249 10 216 1 242 3
258 19 17 16 18 53 23 460 l5 442 138 0 138 0 226 -452 c188 -375 231 -454
252 -462 32 -12 646 -13 677 -1 13 5 25 21 29 39 5 26 -29 101 -244 532 -138
276 -251 505 -251 508 0 3 22 20 48 38 111 76 237 226 295 353 70 154 88 245
83 420 -6 191 -46 324 -139 468 -127 196 -287 316 -512 384 -69 21 -85 22
-987 24 -903 2 -918 2 -943 -18z m1588 -562 c155 -16 274 -147 285 -312 10
-154 -60 -280 -188 -337 -40 -18 -72 -21 -272 -25 l-228 -4 0 344 0 344 173
-2 c94 -1 198 -5 230 -8z"/>
</g>
</svg>
